<mxfile host="app.diagrams.net" modified="2023-09-23T08:14:56.778Z" agent="Mozilla/5.0 (X11; Ubuntu; Linux x86_64; rv:109.0) Gecko/20100101 Firefox/115.0" version="21.8.1" etag="sJCxggYj-e6CZBxlK50Z" type="github">
  <diagram name="Page-1" id="82OTTWyaPoo1Mxa3ZorT">
    <mxGraphModel>
      <root>
        <mxCell id="0" />
        <mxCell id="1" parent="0" />
      </root>
    </mxGraphModel>
  </diagram>
</mxfile>
